<svg version="1.2" baseProfile="tiny-ps" xmlns="http://www.w3.org/2000/svg" viewBox="0 0 88 88" width="88" height="88"><title>icon-brand-recognition-svg</title><style>tspan { white-space:pre }.shp0 { fill: #2bd0d0 } </style><path fill-rule="evenodd" class="shp0" d="M60.41 35.72C61.05 35.72 61.58 36.24 61.58 36.89L61.58 61.66L62.83 61.66C63.14 61.66 63.44 61.78 63.66 62C63.88 62.22 64 62.52 64 62.83C64 63.14 63.88 63.44 63.66 63.66C63.44 63.88 63.14 64 62.83 64L25.17 64C24.86 64 24.56 63.88 24.34 63.66C24.12 63.44 24 63.14 24 62.83C24 62.52 24.12 62.22 24.34 62C24.56 61.78 24.86 61.66 25.17 61.66L26.42 61.66L26.42 48.61C26.42 47.96 26.95 47.44 27.59 47.44L32.28 47.44C32.93 47.44 33.45 47.96 33.45 48.61L33.45 61.66L35.8 61.66L35.8 53.3C35.8 52.65 36.32 52.13 36.97 52.13L41.66 52.13C42.3 52.13 42.83 52.65 42.83 53.3L42.83 61.66L45.17 61.66L45.17 43.92C45.17 43.27 45.7 42.75 46.34 42.75L51.03 42.75C51.68 42.75 52.2 43.27 52.2 43.92L52.2 61.66L54.55 61.66L54.55 36.89C54.55 36.24 55.07 35.72 55.72 35.72L60.41 35.72ZM56.89 38.06L56.89 61.66L59.23 61.66L59.23 38.06L56.89 38.06ZM49.86 45.09L47.52 45.09L47.52 61.66L49.86 61.66L49.86 45.09ZM40.48 54.47L38.14 54.47L38.14 61.66L40.48 61.66L40.48 54.47ZM31.11 49.78L28.77 49.78L28.77 61.66L31.11 61.66L31.11 49.78L31.11 49.78ZM58.06 24C58.06 24 58.06 24 58.06 24C58.06 24 58.06 24 58.06 24L58.06 24ZM59.41 24.27C59.83 24.45 60.22 24.7 60.55 25.03C60.87 25.36 61.13 25.74 61.31 26.17C61.49 26.6 61.58 27.05 61.58 27.52C61.58 27.98 61.49 28.43 61.31 28.86C61.13 29.29 60.87 29.67 60.55 30C60.22 30.33 59.83 30.59 59.41 30.76C58.98 30.94 58.52 31.03 58.06 31.03C57.34 31.03 56.67 30.81 56.11 30.44L52.04 33.5C52.21 34.02 52.24 34.58 52.15 35.12C52.06 35.67 51.84 36.18 51.52 36.63C51.19 37.07 50.77 37.43 50.27 37.68C49.78 37.93 49.24 38.06 48.69 38.06C48.56 38.06 48.43 38.06 48.3 38.04C48.17 38.03 48.04 38.01 47.91 37.98C47.78 37.95 47.66 37.91 47.53 37.87C47.41 37.83 47.29 37.78 47.17 37.72L42.48 42.41C42.7 42.87 42.83 43.38 42.83 43.92C42.83 44.38 42.74 44.84 42.56 45.27C42.38 45.69 42.12 46.08 41.8 46.41C41.47 46.73 41.08 46.99 40.66 47.17C40.23 47.34 39.77 47.44 39.31 47.44C38.82 47.44 38.32 47.33 37.87 47.12C37.42 46.92 37.01 46.62 36.68 46.25C36.35 45.87 36.1 45.44 35.96 44.96C35.81 44.48 35.76 43.98 35.82 43.49L32.38 41.76C32.21 41.92 32.04 42.06 31.85 42.18C31.66 42.31 31.46 42.41 31.25 42.49C31.04 42.58 30.83 42.64 30.61 42.69C30.39 42.73 30.16 42.75 29.94 42.75C29.48 42.75 29.02 42.66 28.59 42.48C28.17 42.3 27.78 42.05 27.45 41.72C27.13 41.39 26.87 41 26.69 40.58C26.51 40.15 26.42 39.7 26.42 39.23C26.42 38.77 26.51 38.32 26.69 37.89C26.87 37.46 27.13 37.08 27.45 36.75C27.78 36.42 28.17 36.16 28.59 35.99C29.02 35.81 29.48 35.72 29.94 35.72C30.43 35.72 30.93 35.83 31.38 36.03C31.83 36.24 32.24 36.54 32.57 36.91C32.9 37.28 33.15 37.72 33.29 38.2C33.44 38.67 33.49 39.17 33.42 39.67L36.88 41.39C37.13 41.15 37.42 40.94 37.74 40.78C38.06 40.62 38.4 40.51 38.75 40.45C39.1 40.39 39.46 40.39 39.81 40.44C40.16 40.49 40.51 40.6 40.83 40.75L45.52 36.06C45.46 35.94 45.41 35.82 45.37 35.7C45.32 35.58 45.29 35.45 45.26 35.32C45.23 35.2 45.21 35.07 45.19 34.94C45.18 34.81 45.17 34.68 45.17 34.55C45.17 34.09 45.26 33.63 45.44 33.2C45.62 32.78 45.88 32.39 46.2 32.06C46.53 31.74 46.92 31.48 47.34 31.3C47.77 31.12 48.23 31.03 48.69 31.03C49.41 31.03 50.08 31.25 50.63 31.62L54.71 28.57C54.54 28.04 54.51 27.48 54.6 26.94C54.69 26.4 54.91 25.88 55.23 25.44C55.56 24.99 55.98 24.63 56.48 24.38C56.97 24.13 57.51 24 58.06 24C58.52 24 58.98 24.09 59.41 24.27ZM39.31 42.75C38.67 42.75 38.14 43.28 38.14 43.92C38.14 44.57 38.67 45.09 39.31 45.09C39.96 45.09 40.48 44.57 40.48 43.92C40.48 43.28 39.96 42.75 39.31 42.75ZM29.94 38.06C29.29 38.06 28.77 38.59 28.77 39.23C28.77 39.88 29.29 40.41 29.94 40.41C30.58 40.41 31.11 39.88 31.11 39.23C31.11 38.59 30.58 38.06 29.94 38.06L29.94 38.06ZM48.69 33.38C48.69 33.38 48.69 33.38 48.69 33.38C48.69 33.38 48.69 33.38 48.69 33.38L48.69 33.38ZM47.52 34.55C47.52 35.19 48.04 35.72 48.69 35.72C49.33 35.72 49.86 35.19 49.86 34.55C49.86 33.9 49.33 33.38 48.69 33.38C48.04 33.38 47.52 33.9 47.52 34.55ZM58.06 26.34C58.06 26.34 58.06 26.34 58.06 26.34C58.06 26.34 58.06 26.34 58.06 26.34L58.06 26.34ZM56.89 27.52C56.89 28.16 57.42 28.69 58.06 28.69C58.71 28.69 59.23 28.16 59.23 27.52C59.23 26.87 58.71 26.34 58.06 26.34C57.42 26.34 56.89 26.87 56.89 27.52Z" /></svg>