<svg version="1.2" baseProfile="tiny-ps" xmlns="http://www.w3.org/2000/svg" viewBox="0 0 88 88" width="88" height="88"><title>icon-detailed-records-svg</title><style>tspan { white-space:pre }.shp0 { fill: #2bd0d0 } </style><path fill-rule="evenodd" class="shp0" d="M43.97 24C54.98 24 63.94 32.96 63.94 43.97C63.94 54.98 54.98 63.94 43.97 63.94C32.96 63.94 24 54.98 24 43.97C24 32.96 32.96 24 43.97 24ZM36.16 59.58C36.77 59.88 37.39 60.15 38.02 60.38C38.65 60.62 39.3 60.81 39.96 60.97C40.61 61.12 41.28 61.24 41.95 61.32C42.62 61.4 43.29 61.44 43.97 61.44C44.64 61.44 45.32 61.4 45.99 61.32C46.66 61.24 47.32 61.12 47.98 60.97C48.64 60.81 49.28 60.62 49.92 60.38C50.55 60.15 51.17 59.88 51.77 59.58C46.91 57.18 41.03 57.18 36.16 59.58ZM45.22 30.24L42.72 30.24L42.72 26.56C41.86 26.62 41.01 26.74 40.17 26.93C39.33 27.12 38.5 27.37 37.7 27.68C36.9 27.99 36.12 28.36 35.37 28.78C34.62 29.21 33.91 29.68 33.23 30.22L36.03 33.01L34.26 34.78L31.37 31.89C30.75 32.54 30.17 33.24 29.66 33.98C29.14 34.72 28.68 35.5 28.28 36.31C27.89 37.13 27.55 37.97 27.29 38.83C27.02 39.69 26.82 40.58 26.7 41.47L31.49 41.47L31.49 43.97L26.5 43.97C26.5 49.77 29.35 54.91 33.72 58.09C39.94 54.38 48 54.38 54.21 58.09C58.58 54.91 61.44 49.77 61.44 43.97L56.45 43.97L56.45 41.47L61.24 41.47C61.11 40.58 60.92 39.69 60.65 38.83C60.38 37.97 60.05 37.13 59.65 36.31C59.26 35.5 58.8 34.72 58.28 33.98C57.76 33.24 57.19 32.54 56.56 31.89L53.68 34.78L51.91 33.01L54.71 30.22C54.03 29.68 53.32 29.2 52.57 28.78C51.82 28.35 51.04 27.99 50.24 27.68C49.43 27.37 48.61 27.12 47.77 26.93C46.93 26.74 46.08 26.62 45.22 26.56L45.22 30.24ZM45.16 34.85C45.79 36.83 48.96 46.81 48.96 48.96C48.96 49.62 48.83 50.27 48.58 50.87C48.33 51.48 47.96 52.03 47.5 52.49C47.03 52.95 46.48 53.32 45.88 53.57C45.27 53.82 44.62 53.95 43.97 53.95C43.31 53.95 42.66 53.82 42.06 53.57C41.45 53.32 40.9 52.95 40.44 52.49C39.98 52.03 39.61 51.48 39.36 50.87C39.11 50.27 38.98 49.62 38.98 48.96C38.98 46.81 42.15 36.83 42.78 34.85C43.11 33.82 44.82 33.82 45.16 34.85ZM41.47 48.96C41.47 49.29 41.54 49.61 41.66 49.92C41.79 50.22 41.97 50.49 42.2 50.72C42.44 50.96 42.71 51.14 43.01 51.27C43.32 51.39 43.64 51.46 43.97 51.46C44.3 51.46 44.62 51.39 44.92 51.27C45.23 51.14 45.5 50.96 45.73 50.73C45.96 50.49 46.15 50.22 46.27 49.92C46.4 49.61 46.46 49.29 46.46 48.96C46.46 47.94 45.2 43.46 43.97 39.42C42.73 43.46 41.47 47.94 41.47 48.96Z" /></svg>