<svg version="1.2" baseProfile="tiny-ps" xmlns="http://www.w3.org/2000/svg" viewBox="0 0 88 88" width="88" height="88"><title>icon-fully-customizable-svg</title><style>tspan { white-space:pre }.shp0 { fill: #2bd0d0 } </style><path fill-rule="evenodd" class="shp0" d="M66.61 26.02C66.68 26.06 66.74 26.11 66.8 26.17C66.85 26.23 66.9 26.29 66.94 26.36C66.98 26.43 67.01 26.51 67.04 26.58C67.06 26.66 67.07 26.74 67.07 26.82L67.46 35.24C67.48 35.65 67.47 36.05 67.42 36.46C67.38 36.86 67.31 37.26 67.21 37.66C67.11 38.05 66.98 38.44 66.83 38.81C66.67 39.18 66.49 39.55 66.28 39.89C66.11 40.17 65.93 40.43 65.74 40.68C65.54 40.94 65.33 41.18 65.11 41.41C64.88 41.64 64.64 41.85 64.4 42.05C64.15 42.26 63.89 42.44 63.62 42.61L61.55 43.92L48.47 65.62C48.31 65.9 48.11 66.16 47.9 66.39C47.68 66.63 47.44 66.85 47.18 67.04C46.92 67.23 46.65 67.4 46.35 67.53C46.06 67.67 45.76 67.78 45.45 67.85C45.05 67.95 44.66 68 44.25 68C43.76 68 43.28 67.93 42.81 67.78C42.34 67.63 41.89 67.42 41.49 67.14C41.09 66.86 40.73 66.52 40.42 66.14C40.12 65.75 39.88 65.32 39.7 64.86C39.63 64.8 25.01 42.65 25.01 42.64C25 42.63 25 42.62 24.99 42.61C24.98 42.58 24.97 42.56 24.96 42.54C24.94 42.51 24.93 42.49 24.92 42.46C24.91 42.44 24.9 42.41 24.9 42.39C24.89 42.36 24.88 42.34 24.88 42.31C24.87 42.29 24.87 42.27 24.86 42.25C24.86 42.25 24.86 42.24 24.86 42.24C24.86 42.24 24.86 42.23 24.86 42.23C24.86 42.23 24.85 42.22 24.85 42.22C24.85 42.22 24.85 42.21 24.85 42.21L24.36 38.07L22.87 35.8L20.16 31.7C20.08 31.57 20.03 31.43 20.01 31.28C19.99 31.13 20 30.98 20.05 30.84C20.1 30.7 20.18 30.57 20.28 30.46C20.39 30.36 20.51 30.28 20.65 30.23L24.48 28.88C24.58 28.85 24.69 28.83 24.8 28.83C24.91 28.83 25.02 28.84 25.12 28.88C25.22 28.91 25.32 28.97 25.41 29.03C25.49 29.1 25.57 29.18 25.63 29.27L27.79 32.56L29.29 34.83L32.89 36.91C32.91 36.92 32.91 36.93 32.93 36.94C32.95 36.95 32.96 36.97 32.98 36.98C33 37 33.02 37.01 33.04 37.03C33.06 37.05 33.08 37.06 33.1 37.08C33.12 37.1 33.13 37.12 33.15 37.14C33.16 37.16 33.18 37.18 33.2 37.2C33.2 37.21 33.21 37.21 33.22 37.22L39.35 46.52L39.35 42.57C39.35 42.55 39.35 42.52 39.35 42.5C39.35 42.47 39.36 42.45 39.36 42.43C39.36 42.4 39.37 42.38 39.38 42.36C39.38 42.33 39.39 42.31 39.39 42.29L41.23 36.77L37.48 29.27C37.44 29.19 37.41 29.1 37.39 29.01C37.38 28.92 37.37 28.83 37.38 28.74C37.39 28.65 37.41 28.56 37.44 28.48C37.47 28.39 37.52 28.31 37.57 28.24L43.47 20.37C43.57 20.25 43.69 20.16 43.83 20.1C43.96 20.03 44.11 20 44.26 20C44.41 20 44.56 20.03 44.7 20.1C44.83 20.16 44.95 20.25 45.05 20.37L50.95 28.24C51 28.31 51.05 28.39 51.08 28.47C51.11 28.56 51.13 28.65 51.14 28.74C51.15 28.83 51.15 28.92 51.13 29.01C51.11 29.1 51.09 29.19 51.05 29.27L47.29 36.77L49.13 42.29C49.14 42.31 49.14 42.33 49.15 42.36C49.16 42.38 49.16 42.4 49.16 42.43C49.17 42.45 49.17 42.47 49.17 42.5C49.18 42.52 49.18 42.55 49.18 42.57C49.18 42.58 49.18 42.59 49.18 42.6L49.18 45.4L53.13 38.84L53.33 36.4C53.39 35.68 53.54 34.96 53.78 34.28C54.03 33.59 54.36 32.94 54.77 32.35C55.19 31.75 55.68 31.21 56.23 30.74C56.79 30.27 57.4 29.87 58.06 29.56L65.68 25.97C65.75 25.94 65.83 25.91 65.91 25.9C65.99 25.88 66.07 25.88 66.15 25.88C66.23 25.88 66.31 25.9 66.39 25.92C66.47 25.94 66.54 25.98 66.61 26.02ZM59.49 43.54L54.43 40.5L52.91 43.02L57.96 46.07L59.49 43.54ZM41.32 58.45L47.22 48.66L47.22 43.58L41.31 43.58L41.32 58.45ZM43.01 37.68L41.7 41.61L46.83 41.61L45.52 37.68L43.01 37.68ZM44.27 22.6L44.27 22.6L44.27 22.6L44.27 22.6ZM44.27 22.6L39.52 28.93L42.91 35.71L43.28 35.71L43.28 32.58C41.93 32.1 41.11 30.72 41.36 29.3C41.6 27.89 42.83 26.85 44.27 26.85C45.7 26.85 46.93 27.89 47.17 29.3C47.42 30.72 46.6 32.1 45.25 32.58L45.25 35.71L45.63 35.71L49.02 28.93L44.27 22.6ZM44.26 30.8C44.53 30.79 44.78 30.69 44.96 30.51C45.14 30.32 45.25 30.07 45.25 29.81C45.25 29.55 45.14 29.3 44.96 29.12C44.78 28.93 44.53 28.83 44.26 28.83C44 28.83 43.75 28.93 43.57 29.12C43.39 29.3 43.28 29.55 43.28 29.81C43.28 30.07 43.39 30.32 43.57 30.51C43.75 30.69 44 30.8 44.26 30.8ZM30.53 37.82L28.1 36.41C28.07 36.39 28.04 36.37 28 36.35C27.97 36.33 27.95 36.3 27.92 36.28C27.89 36.25 27.86 36.22 27.84 36.19C27.81 36.16 27.79 36.13 27.77 36.1L26.69 34.46L25.05 35.54L26.13 37.18C26.15 37.22 26.17 37.25 26.19 37.28C26.2 37.32 26.22 37.35 26.23 37.39C26.25 37.42 26.26 37.46 26.27 37.5C26.27 37.53 26.28 37.57 26.29 37.61L26.62 40.4L30.24 38.01L30.53 37.82L30.53 37.82ZM22.49 31.66L23.97 33.9L25.61 32.81L24.41 30.99L22.49 31.66ZM27.19 42.37L39.35 60.82L39.35 50.09L32.12 39.12L29.66 40.75L27.19 42.37ZM46.79 64.6L56.95 47.75L54.42 46.23L51.89 44.71L49.18 49.21L49.18 49.23L49.17 49.23L41.74 61.55C41.34 62.22 41.21 63.02 41.4 63.78C41.59 64.54 42.07 65.2 42.74 65.6C43.41 66 44.22 66.13 44.97 65.94C45.73 65.75 46.39 65.27 46.79 64.6L46.79 64.6ZM64.6 38.88C64.76 38.61 64.9 38.33 65.02 38.05C65.14 37.76 65.24 37.47 65.31 37.17C65.39 36.87 65.44 36.56 65.47 36.25C65.5 35.95 65.51 35.64 65.5 35.33L65.4 33.06L63.1 33.64C62.74 33.72 62.39 33.86 62.06 34.05C61.74 34.23 61.44 34.46 61.18 34.73C60.91 35 60.69 35.3 60.51 35.63C60.33 35.96 60.2 36.31 60.12 36.68C60.06 36.93 59.91 37.15 59.69 37.29C59.47 37.43 59.2 37.48 58.95 37.42C58.69 37.37 58.47 37.21 58.33 36.99C58.19 36.77 58.15 36.5 58.2 36.25C58.32 35.7 58.52 35.18 58.78 34.69C59.05 34.2 59.38 33.75 59.77 33.35C60.16 32.96 60.6 32.61 61.08 32.34C61.57 32.06 62.09 31.86 62.63 31.72L65.01 31.13C65.03 31.13 65.06 31.13 65.08 31.12C65.11 31.12 65.13 31.12 65.16 31.12C65.18 31.11 65.21 31.11 65.23 31.12C65.26 31.12 65.28 31.12 65.31 31.12L65.18 28.38L58.89 31.34C58.38 31.58 57.92 31.88 57.49 32.24C57.07 32.6 56.7 33.01 56.38 33.46C56.07 33.92 55.81 34.41 55.63 34.94C55.44 35.46 55.33 36 55.28 36.55L55.12 38.62L60.82 42.05L62.57 40.95C62.78 40.82 62.97 40.67 63.16 40.52C63.35 40.37 63.53 40.2 63.7 40.03C63.88 39.85 64.04 39.67 64.19 39.48C64.33 39.28 64.47 39.08 64.6 38.87L64.6 38.88Z" /></svg>