<svg version="1.2" baseProfile="tiny-ps" xmlns="http://www.w3.org/2000/svg" viewBox="0 0 121 33" width="121" height="33"><title>logo-svg</title><style>tspan { white-space:pre }.shp0 { fill: #ffffff } </style><path fill-rule="evenodd" class="shp0" d="M16.71 7.93L16.71 7.93C16.71 7.93 16.71 7.93 16.71 7.93L16.71 7.93ZM16 7.42C15.59 7.17 15.08 6.91 14.47 6.64C13.86 6.37 13.19 6.13 12.47 5.93C12.29 5.88 12.11 5.83 11.93 5.79C11.75 5.76 11.57 5.72 11.39 5.7C11.21 5.67 11.02 5.65 10.84 5.64C10.66 5.63 10.47 5.62 10.29 5.62C8.29 5.62 7.3 6.29 7.3 7.63C7.3 8.03 7.4 8.37 7.62 8.65C7.84 8.92 8.15 9.16 8.57 9.38C8.99 9.59 9.52 9.79 10.15 9.97L11.56 10.37L12.36 10.58C13.52 10.9 14.56 11.25 15.49 11.62C16.42 11.99 17.21 12.46 17.85 13.01C18.01 13.15 18.17 13.3 18.31 13.45C18.46 13.61 18.59 13.77 18.72 13.94C18.84 14.11 18.96 14.29 19.06 14.47C19.17 14.66 19.27 14.84 19.35 15.04C19.7 15.83 19.88 16.78 19.88 17.89C19.88 19.25 19.62 20.4 19.11 21.34C18.6 22.29 17.93 23.04 17.09 23.62C16.25 24.2 15.29 24.62 14.2 24.88C13.11 25.14 11.99 25.27 10.83 25.27C10.37 25.27 9.91 25.25 9.46 25.22C9 25.18 8.54 25.13 8.08 25.06C7.63 25 7.18 24.91 6.73 24.82C6.28 24.72 5.83 24.6 5.39 24.47C4.51 24.21 3.65 23.9 2.83 23.54C2.63 23.45 2.43 23.36 2.23 23.26C2.03 23.17 1.84 23.07 1.65 22.96C1.46 22.86 1.27 22.75 1.08 22.63C0.9 22.52 0.71 22.4 0.53 22.28L2.98 17.42C3.07 17.53 3.36 17.75 3.86 18.06C4.36 18.38 4.98 18.7 5.71 19.02C6.45 19.33 7.27 19.62 8.18 19.87C9.09 20.12 10 20.24 10.93 20.24C12.91 20.24 13.89 19.64 13.89 18.44C13.89 17.98 13.74 17.61 13.45 17.32C13.15 17.02 12.75 16.75 12.23 16.52C12.1 16.46 11.98 16.41 11.86 16.36C11.73 16.31 11.61 16.26 11.48 16.21C11.36 16.17 11.23 16.12 11.1 16.08C10.98 16.04 10.85 16 10.72 15.96L9.02 15.46L8.04 15.17C6.93 14.83 5.97 14.47 5.15 14.07C4.34 13.67 3.66 13.21 3.13 12.69C3 12.57 2.88 12.43 2.76 12.29C2.65 12.15 2.54 12.01 2.44 11.86C2.34 11.7 2.25 11.55 2.16 11.39C2.08 11.23 2.01 11.06 1.94 10.89C1.68 10.21 1.55 9.42 1.55 8.51C1.55 7.24 1.79 6.12 2.26 5.14C2.38 4.91 2.51 4.68 2.64 4.45C2.78 4.23 2.94 4.01 3.1 3.81C3.26 3.6 3.44 3.4 3.62 3.21C3.8 3.02 4 2.85 4.2 2.68C4.41 2.51 4.63 2.35 4.85 2.2C5.08 2.05 5.31 1.91 5.55 1.79C5.79 1.66 6.03 1.54 6.28 1.44C6.53 1.34 6.78 1.25 7.04 1.17C8.12 0.83 9.26 0.66 10.46 0.66C11.3 0.66 12.12 0.74 12.94 0.89C13.76 1.05 14.54 1.26 15.29 1.51C16.03 1.76 16.73 2.04 17.38 2.36C18.02 2.67 18.62 2.99 19.16 3.31L16.71 7.93C16.65 7.84 16.41 7.67 16 7.42ZM34.7 25L34.7 14.97C34.7 13.81 34.47 12.96 34.02 12.42C33.57 11.88 32.94 11.6 32.15 11.6C31.83 11.6 31.49 11.68 31.11 11.83C31.01 11.86 30.92 11.91 30.82 11.95C30.73 12 30.63 12.05 30.54 12.11C30.45 12.16 30.36 12.22 30.28 12.28C30.19 12.34 30.11 12.4 30.02 12.47C29.93 12.54 29.85 12.62 29.76 12.7C29.67 12.78 29.59 12.86 29.51 12.94C29.43 13.03 29.35 13.11 29.27 13.2C29.2 13.29 29.12 13.38 29.05 13.47C28.98 13.57 28.91 13.67 28.84 13.77C28.78 13.88 28.72 13.98 28.66 14.09C28.6 14.2 28.55 14.31 28.5 14.42C28.46 14.54 28.41 14.65 28.37 14.77L28.37 25L22.93 25L22.93 0.18L28.37 0.18L28.37 10.14C28.53 9.88 28.7 9.64 28.89 9.4C29.08 9.16 29.29 8.94 29.51 8.73C29.73 8.53 29.96 8.33 30.21 8.16C30.45 7.98 30.71 7.82 30.98 7.68C32.05 7.1 33.24 6.81 34.53 6.81C35.73 6.81 36.7 7.02 37.44 7.44C38.17 7.86 38.74 8.39 39.14 9.04C39.53 9.68 39.8 10.41 39.94 11.21C40.07 12.02 40.14 12.81 40.14 13.58L40.14 25L34.7 25ZM48.42 24.59C47.23 24.09 46.22 23.42 45.41 22.57C45.2 22.36 45.01 22.14 44.83 21.91C44.65 21.67 44.48 21.43 44.33 21.19C44.17 20.94 44.03 20.68 43.9 20.42C43.77 20.16 43.66 19.89 43.55 19.61C43.45 19.33 43.36 19.05 43.28 18.76C43.2 18.47 43.13 18.17 43.08 17.88C43.03 17.59 42.99 17.29 42.96 16.99C42.94 16.69 42.92 16.39 42.92 16.09C42.92 14.87 43.13 13.69 43.55 12.57C43.66 12.3 43.77 12.03 43.9 11.77C44.03 11.5 44.17 11.25 44.33 11C44.48 10.75 44.65 10.51 44.83 10.28C45.01 10.05 45.2 9.83 45.41 9.61C46.22 8.76 47.23 8.08 48.42 7.57C49.61 7.06 50.96 6.81 52.48 6.81C54 6.81 55.35 7.06 56.53 7.57C57.7 8.08 58.7 8.76 59.52 9.61C59.72 9.83 59.91 10.05 60.09 10.28C60.28 10.51 60.44 10.75 60.6 11C60.76 11.25 60.9 11.5 61.03 11.77C61.16 12.03 61.28 12.3 61.39 12.57C61.49 12.85 61.59 13.14 61.67 13.43C61.75 13.72 61.82 14.01 61.87 14.3C61.93 14.6 61.97 14.89 61.99 15.19C62.02 15.49 62.03 15.79 62.03 16.09C62.03 16.39 62.02 16.69 62 16.99C61.97 17.29 61.93 17.59 61.88 17.88C61.82 18.17 61.76 18.47 61.68 18.76C61.6 19.05 61.51 19.33 61.4 19.61C61.3 19.89 61.19 20.16 61.06 20.42C60.93 20.68 60.79 20.94 60.63 21.19C60.47 21.43 60.31 21.67 60.13 21.91C59.95 22.14 59.75 22.36 59.55 22.57C58.73 23.42 57.73 24.09 56.54 24.59C55.35 25.09 54 25.34 52.48 25.34C50.96 25.34 49.61 25.09 48.42 24.59ZM49.62 19.47C50.37 20.32 51.32 20.75 52.48 20.75C52.61 20.75 52.75 20.75 52.88 20.73C53.01 20.72 53.15 20.7 53.28 20.67C53.41 20.64 53.54 20.6 53.67 20.56C53.8 20.52 53.92 20.47 54.04 20.41C54.52 20.18 54.93 19.87 55.28 19.46C55.37 19.35 55.46 19.24 55.54 19.12C55.62 19 55.7 18.88 55.77 18.76C55.84 18.63 55.9 18.51 55.96 18.38C56.02 18.25 56.07 18.11 56.12 17.98C56.17 17.83 56.21 17.67 56.25 17.52C56.29 17.36 56.32 17.21 56.35 17.05C56.38 16.89 56.39 16.73 56.41 16.57C56.42 16.41 56.42 16.25 56.42 16.09C56.42 14.69 56.05 13.56 55.3 12.71C54.55 11.86 53.61 11.43 52.48 11.43C52.21 11.43 51.94 11.46 51.68 11.51C51.42 11.57 51.16 11.65 50.92 11.77C50.67 11.88 50.44 12.01 50.22 12.18C50.01 12.34 49.81 12.52 49.64 12.73C49.55 12.83 49.46 12.95 49.38 13.06C49.3 13.18 49.22 13.3 49.15 13.43C49.08 13.55 49.02 13.68 48.96 13.81C48.9 13.94 48.85 14.07 48.81 14.2C48.75 14.36 48.71 14.51 48.67 14.67C48.63 14.82 48.6 14.98 48.57 15.14C48.55 15.29 48.53 15.45 48.52 15.61C48.5 15.77 48.5 15.93 48.5 16.09C48.5 17.5 48.87 18.63 49.62 19.47ZM72.71 12.45C71.64 12.86 70.87 13.47 70.39 14.29L70.39 25L64.95 25L64.95 7.15L69.95 7.15L69.95 10.75C70.56 9.55 71.35 8.61 72.32 7.93C73.28 7.25 74.3 6.9 75.39 6.88L75.94 6.88C76.05 6.88 76.16 6.89 76.28 6.91L76.28 11.81C74.96 11.83 73.77 12.05 72.71 12.45ZM89.72 24.3C89.51 24.38 89.29 24.46 89.08 24.53C88.87 24.6 88.65 24.67 88.43 24.74C88.22 24.81 88 24.87 87.78 24.93C86.82 25.2 85.85 25.34 84.88 25.34C84.2 25.34 83.56 25.26 82.96 25.09C82.81 25.05 82.67 25 82.53 24.94C82.39 24.89 82.26 24.83 82.12 24.76C81.99 24.69 81.86 24.62 81.74 24.53C81.61 24.45 81.49 24.36 81.37 24.27C80.92 23.9 80.56 23.4 80.3 22.79C80.04 22.18 79.91 21.44 79.91 20.58L79.91 11.26L77.63 11.26L77.63 7.15L79.91 7.15L79.91 1.47L85.35 1.47L85.35 7.15L88.99 7.15L88.99 11.26L85.35 11.26L85.35 18.71C85.35 19.3 85.5 19.72 85.79 19.98C86.09 20.25 86.46 20.38 86.92 20.38C87.32 20.38 87.74 20.31 88.17 20.17C88.6 20.04 88.98 19.89 89.3 19.73L90.35 24.05C90.14 24.13 89.93 24.22 89.72 24.3ZM98.07 0.18L98.07 18.64C98.07 20 98.64 20.68 99.8 20.68C100.07 20.68 100.37 20.64 100.7 20.56C101.03 20.48 101.33 20.36 101.6 20.21L102.32 24.29C101.64 24.6 100.85 24.85 99.97 25.03C99.09 25.22 98.26 25.31 97.49 25.31C95.92 25.31 94.72 24.9 93.88 24.08C93.05 23.27 92.63 22.09 92.63 20.55L92.63 0.18L98.07 0.18ZM104.08 27.69L104.08 27.69C104.08 27.69 104.08 27.69 104.08 27.69L104.08 27.69ZM105.36 28.03C105.45 28.04 105.53 28.06 105.62 28.07C105.71 28.08 105.8 28.09 105.89 28.1C105.98 28.11 106.07 28.11 106.16 28.12C106.25 28.12 106.34 28.13 106.43 28.13C107.09 28.13 107.6 27.9 107.96 27.45C108.32 27 108.65 26.18 108.95 25L102.15 7.15L107.76 7.15L111.9 20.34L115.47 7.15L120.57 7.15L113.77 27.89C113.66 28.25 113.52 28.59 113.36 28.93C113.19 29.26 113 29.58 112.78 29.89C112.57 30.19 112.33 30.48 112.07 30.74C111.8 31.01 111.52 31.25 111.22 31.48C110 32.39 108.55 32.85 106.87 32.85C106.76 32.85 106.64 32.85 106.53 32.85C106.41 32.84 106.29 32.83 106.18 32.82C106.07 32.81 105.95 32.8 105.84 32.79C105.72 32.77 105.61 32.75 105.49 32.73C105.37 32.71 105.25 32.69 105.13 32.66C105.02 32.64 104.9 32.61 104.78 32.57C104.66 32.54 104.54 32.51 104.43 32.47C104.31 32.43 104.2 32.39 104.08 32.34L104.08 27.69C104.54 27.85 104.96 27.96 105.36 28.03Z" /></svg>